# xmcd CD database file
# 
# Track frame offsets:
# 	150
# 	9162
# 	23263
# 	49602
# 	76165
# 	104198
# 	151361
# 	179577
# 	209430
# 	226616
# 	283547
# 
# Disc length: 4165 seconds
# 
# Submitted via: Nero 5.5.9.0
# 
# Revision: 0
# Processed by: cddbd v1.4PL0 Copyright (c) Steve Scherf et al.
#
DISCID=7d10430b
DTITLE=Rusty Wier - Live At Poor David's Pub
DYEAR=1900
DGENRE=
TTITLE0=Introduction
TTITLE1=I Think It's Time ( I Learned How To Let Her Go)
TTITLE2=Coast Of Colorado
TTITLE3=I Heard You Been Layin' My Old Lady
TTITLE4=Black Magic Gun
TTITLE5=Creek Water Coffee
TTITLE6=Agua Dulce
TTITLE7=Hot Spot
TTITLE8=Fast Horses
TTITLE9=You've Lost That Lovin' Feelin'
TTITLE10=Amie
EXTD=
EXTT0=
EXTT1=
EXTT2=
EXTT3=
EXTT4=
EXTT5=
EXTT6=
EXTT7=
EXTT8=
EXTT9=
EXTT10=
PLAYORDER=
